<?xml version="1.0" ?><!DOCTYPE svg  PUBLIC '-//W3C//DTD SVG 1.1//EN'  'http://www.w3.org/Graphics/SVG/1.1/DTD/svg11.dtd'><svg enable-background="new 0 0 512 512" height="512px" id="Layer_1" version="1.1" viewBox="0 0 512 512" width="512px" xml:space="preserve" xmlns="http://www.w3.org/2000/svg" xmlns:xlink="http://www.w3.org/1999/xlink"><g><polygon clip-rule="evenodd" fill="#363835" fill-rule="evenodd" points="0,0 435.199,0 512,76.801 512,512 76.799,512 0,435.199     "/><polygon clip-rule="evenodd" fill="#646764" fill-rule="evenodd" points="435.199,0 512,76.801 435.199,76.801  "/><polygon clip-rule="evenodd" fill="#0E0E0E" fill-rule="evenodd" points="435.199,76.801 512,153.602 512,76.801  "/><polygon clip-rule="evenodd" fill="#646764" fill-rule="evenodd" points="76.799,512 0,435.199 76.799,435.199  "/><polygon clip-rule="evenodd" fill="#0E0E0E" fill-rule="evenodd" points="153.598,512 76.799,435.199 76.799,512  "/><path clip-rule="evenodd" d="M274.742,512h139.492H512V370.898V253.381L360.016,101.393   l-13.105,79.221h64.703v39.508h-50.395h-20.758l-12.902,78.207h62.086v39.512h-68.535l-11.496,69.543l-0.605,3.227h-39.91   l6.25-37.703l5.645-35.066h-40.918h-36.486l-12.094,72.77h-18.143h-21.766L252.773,512H274.742z M229.389,180.613H307l2.008-12.699   l-66.514-66.521L229.389,180.613z M122.355,220.121l52.006,52.004l8.465-52.004H122.355z M154.607,391.855l8.869-54.016h-62.891   L154.607,391.855z M210.039,298.328h77.605l12.703-78.207h-77.404L210.039,298.328z" fill="#0E0E0E" fill-rule="evenodd"/><path clip-rule="evenodd" d="M191.494,410.609l12.094-72.77h77.404l-11.895,72.77h39.91   l12.102-72.77h68.535v-39.512h-62.086l12.902-78.207h71.152v-39.508H346.91l13.105-79.221h-40.117L307,180.613h-77.611   l13.105-79.221h-40.115l-12.9,79.221h-67.123v39.508h60.471l-12.697,78.207h-69.543v39.512h62.891l-11.891,72.77H191.494z    M210.039,298.328l12.904-78.207h77.404l-12.703,78.207H210.039z" fill="#D4D4D6" fill-rule="evenodd"/></g></svg>