<svg xmlns="http://www.w3.org/2000/svg"
	 width="144.032px" height="162.551px" viewBox="0 0 144.032 162.551" enable-background="new 0 0 144.032 162.551">
<g id="logo">
	<g id="feuille">
		<path d="M67.671,1.554c0,0,18.938,12.557,22.201,47.075c0,0,6.396,82.924-36.504,99.186
			c0,0,3.838,0.713,8.166,0.511c0,0,53.049-33.459,28.713-98.421C90.247,49.903,82.972,27.23,67.671,1.554z"/>
		<path d="M95.362,58.189c0,0-9.882-15.292,2.662-27.902c0,0,4.391-4.84,16.936-8.024
			c0,0,12.543-2.675,19.317-17.068c0,0,14.05,19.616,5.407,45.438c0,0-4.278,11.627-13.198,16.935
			c-6.729,4.005-16.921,5.265-27.584-5.18c0,0,32.238-17.663,33.441-32.615C132.344,29.771,122.443,52.027,95.362,58.189z"/>
		<path d="M95.362,58.189c0,0-9.882-15.292,2.662-27.902c0,0,4.391-4.84,16.936-8.024
			c0,0,12.543-2.675,19.317-17.068c0,0,14.05,19.616,5.407,45.438c0,0-4.278,11.627-13.198,16.935
			c-6.729,4.005-16.921,5.265-27.584-5.18c0,0,32.238-17.663,33.441-32.615C132.344,29.771,122.443,52.027,95.362,58.189z"/>
	</g>
	<path d="M103.581,104.589c0,7.95-1.897,15.359-5.691,22.231c-3.797,6.871-8.922,12.177-15.381,15.914
		c-6.459,3.74-13.549,5.608-21.271,5.608c-7.724,0-14.813-1.868-21.271-5.608c-6.459-3.737-11.585-9.043-15.38-15.914
		c-3.795-6.872-5.692-14.281-5.692-22.231c0-12.328,4.161-22.837,12.483-31.527c8.321-8.69,18.276-13.035,29.86-13.035
		c5.511,0,10.654,1.006,15.44,2.995c0.479-5.035,2.246-9.722,4.203-13.547c-6.023-2.186-12.551-3.292-19.594-3.292
		c-16.748,0-30.605,6.164-41.57,18.492C9.746,75.858,4.763,89.062,4.763,104.287c0,15.359,5.267,28.783,15.801,40.27
		c10.533,11.485,24.107,17.229,40.724,17.229c16.548,0,30.089-5.742,40.625-17.229c10.532-11.486,15.801-24.91,15.801-40.27
		c0-8.219-1.455-15.839-4.334-22.872c-4.836,2.976-9.433,4.53-13.238,5.325C102.427,92.193,103.581,98.141,103.581,104.589z"/>
</g>
<path d="M86.07,121.038"/>
</svg>
